<svg id="Capa_1" data-name="Capa 1" xmlns="http://www.w3.org/2000/svg" viewBox="0 0 771.23 132.01"><defs><style>.cls-1{fill:#008358;}.cls-2{fill:#00432a;}</style></defs><path class="cls-1" d="M57.19,4.94Q48.9,0,37.14,0,25.6,0,17.25,4.94A32.46,32.46,0,0,0,4.45,19.06Q0,28.24,0,40.87T4.45,62.63a32.12,32.12,0,0,0,12.8,14q8.36,4.88,19.89,4.88,11.74,0,20-4.88a32.17,32.17,0,0,0,12.74-14q4.45-9.12,4.45-21.76T69.93,19.06A32.51,32.51,0,0,0,57.19,4.94ZM57,56.09a21.37,21.37,0,0,1-7.69,9.67,21.35,21.35,0,0,1-12.14,3.35,21.2,21.2,0,0,1-12-3.35,21.22,21.22,0,0,1-7.75-9.67,38.8,38.8,0,0,1-2.69-15.22A39.23,39.23,0,0,1,17.41,25.6a21.53,21.53,0,0,1,7.75-9.78,20.93,20.93,0,0,1,12-3.41,21.07,21.07,0,0,1,12.14,3.41A21.69,21.69,0,0,1,57,25.6a39.23,39.23,0,0,1,2.69,15.27A38.8,38.8,0,0,1,57,56.09Zm55.69-35h5.39V33.18h-5.5a18.44,18.44,0,0,0-7.47,1.32,9,9,0,0,0-4.45,4.12,15.59,15.59,0,0,0-1.48,7.31V79.77H85.08V21.1H98.27l.38,11.3a17.65,17.65,0,0,1,4-7.51Q106.29,21.1,112.66,21.1Zm32,47.79h4.28V79.77h-8.68q-6.37,0-10.22-3.3t-3.84-10.55V1.76h14.06V64.49a4.38,4.38,0,0,0,1.15,3.3A4.53,4.53,0,0,0,144.65,68.89ZM208,68.67a4.7,4.7,0,0,1-.83-3.19V44.17q0-11.76-6.42-18.08t-19-6.31q-10.87,0-17.69,5t-8.57,14.33l14.29.66a12.17,12.17,0,0,1,4-6.75q2.91-2.37,8-2.37,5.61,0,8.46,3.14t2.86,9.39L173.66,47q-9.66,1.86-14.39,6.15T154.54,65q0,7.59,5.61,11.82T175,81.09a28,28,0,0,0,9.89-1.65,19.6,19.6,0,0,0,7.31-4.67A15,15,0,0,0,195,70.6,13.62,13.62,0,0,0,196.3,75a8.45,8.45,0,0,0,4.39,4.06,17.17,17.17,0,0,0,6.48,1.16c1,0,2,0,3-.11a10.7,10.7,0,0,0,2.14-.33V69.55h-1.87A3.21,3.21,0,0,1,208,68.67ZM193.11,56a15.48,15.48,0,0,1-1.87,7.8A13.31,13.31,0,0,1,186,69a16.61,16.61,0,0,1-8.13,1.87A9.78,9.78,0,0,1,171.41,69a6.47,6.47,0,0,1-2.25-5.27,6.55,6.55,0,0,1,2-5c1.35-1.28,3.61-2.26,6.76-2.92l15.16-3.07Zm75.27-25.54a27.37,27.37,0,0,1,2.31,11.59V79.77H256.63V46.59a30.28,30.28,0,0,0-1-8.35A10.1,10.1,0,0,0,252.4,33a9.28,9.28,0,0,0-6-1.82,11.15,11.15,0,0,0-9,4c-2.23,2.64-3.35,6.44-3.35,11.43V79.77H220V21.1h12.74l.34,10.07A17.09,17.09,0,0,1,235.31,27a16.76,16.76,0,0,1,6.7-5.5,21.17,21.17,0,0,1,8.68-1.75,19.9,19.9,0,0,1,10.94,2.85A18.24,18.24,0,0,1,268.38,30.49Zm54-1a16.9,16.9,0,0,0-7.08-7.15,24.24,24.24,0,0,0-23.68,1.21,23.91,23.91,0,0,0-8.46,10.66,41,41,0,0,0-3,16.26,41,41,0,0,0,3,16.26,24,24,0,0,0,8.41,10.66,22.21,22.21,0,0,0,12.91,3.74,22.52,22.52,0,0,0,11-2.64,17.18,17.18,0,0,0,7.26-7.36l.32,8.68h13.41v-78H322.39ZM320.8,60.92a13.54,13.54,0,0,1-4.61,6.54,12.26,12.26,0,0,1-7.42,2.2,11.92,11.92,0,0,1-10.16-5.22q-3.8-5.22-3.79-14,0-9,3.79-14.12a12,12,0,0,1,10.16-5.11,12.33,12.33,0,0,1,7.42,2.2,13.65,13.65,0,0,1,4.61,6.48,30.56,30.56,0,0,1,1.59,10.55A30.55,30.55,0,0,1,320.8,60.92Zm79.29-26.69A25.94,25.94,0,0,0,390,23.57a29.47,29.47,0,0,0-15.16-3.79,29.77,29.77,0,0,0-15.22,3.79,25.74,25.74,0,0,0-10.11,10.66A34.66,34.66,0,0,0,346,50.43a34.76,34.76,0,0,0,3.57,16.15A25.72,25.72,0,0,0,359.65,77.3a29.87,29.87,0,0,0,15.22,3.79A29.56,29.56,0,0,0,390,77.3a25.92,25.92,0,0,0,10.06-10.72,34.88,34.88,0,0,0,3.57-16.15A34.78,34.78,0,0,0,400.09,34.23ZM385.36,64.6a12.2,12.2,0,0,1-10.49,5.06,12.36,12.36,0,0,1-10.55-5.06q-3.74-5-3.74-14.17t3.74-14.12a12.32,12.32,0,0,1,10.55-5.11,12.16,12.16,0,0,1,10.49,5.11Q389,41.43,389,50.43T385.36,64.6Z"/><path class="cls-2" d="M470.67,48a20.07,20.07,0,0,1,2.64,10.33,21.08,21.08,0,0,1-3.63,12.36,23,23,0,0,1-10.22,8A39.34,39.34,0,0,1,444,81.53a38,38,0,0,1-16.7-3.41,26.93,26.93,0,0,1-11-9.5,29.78,29.78,0,0,1-4.67-14.23l14.5-.88A20.7,20.7,0,0,0,429,62.08a14.46,14.46,0,0,0,6,5.33,21.06,21.06,0,0,0,9.17,1.81,23.54,23.54,0,0,0,7.86-1.15A10.37,10.37,0,0,0,457,64.66a8.9,8.9,0,0,0,1.7-5.55,10,10,0,0,0-1.43-5.33q-1.42-2.36-5.49-4.28a63.47,63.47,0,0,0-12.08-3.79,75.15,75.15,0,0,1-15.5-5,19.64,19.64,0,0,1-8.46-7,19.8,19.8,0,0,1-2.63-10.61,21.52,21.52,0,0,1,3.4-12,22.59,22.59,0,0,1,9.67-8.13A35.5,35.5,0,0,1,441.22,0q9.34,0,15.83,3.35a26.1,26.1,0,0,1,10.21,9.18,31.14,31.14,0,0,1,4.62,13.4l-14.4.66a17.74,17.74,0,0,0-2.58-7.47,14.1,14.1,0,0,0-5.49-5A17.93,17.93,0,0,0,441,12.31q-6.15,0-9.72,2.8a9,9,0,0,0-3.57,7.41,8.88,8.88,0,0,0,1.48,5.28,11.43,11.43,0,0,0,5.33,3.57,87.83,87.83,0,0,0,10.77,3.13q10.44,2.2,16.59,5.6T470.67,48Zm33-40.65H489.6V21.1h-9.23V32h9.23V63q0,8.67,4.12,12.74t12.91,4.07h12.53V68.89h-8.24q-3.75,0-5.5-1.59t-1.76-5.66V32h15.5V21.1h-15.5Zm59.23,47.47q0,7.24-3.13,11t-8.84,3.79q-5.05,0-7.53-3.46t-2.47-10.82V21.1H526.86V58.89q0,10.44,5.22,16.32t14.11,5.88q8.13,0,13.08-4.29a17.28,17.28,0,0,0,4.64-6.66l.19,9.63H577V21.1H562.89ZM629.07,1.76h14.06v78h-13.4l-.33-8.68a17.16,17.16,0,0,1-7.25,7.36,22.58,22.58,0,0,1-11,2.64,22.26,22.26,0,0,1-12.91-3.74,24,24,0,0,1-8.41-10.66,41.15,41.15,0,0,1-3-16.26,41.19,41.19,0,0,1,3-16.26,23.86,23.86,0,0,1,8.47-10.66A24.22,24.22,0,0,1,622,22.3a16.86,16.86,0,0,1,7.09,7.15Zm0,48.67a30.56,30.56,0,0,0-1.59-10.55,13.67,13.67,0,0,0-4.62-6.48,12.3,12.3,0,0,0-7.41-2.2,12,12,0,0,0-10.17,5.11q-3.78,5.11-3.79,14.12,0,8.79,3.79,14a12,12,0,0,0,10.17,5.22,12.23,12.23,0,0,0,7.41-2.2,13.56,13.56,0,0,0,4.62-6.54A30.55,30.55,0,0,0,629.07,50.43ZM663.08,0a7.42,7.42,0,0,0-5.32,1.92,6.71,6.71,0,0,0-2,5.11,6.82,6.82,0,0,0,2,5.22,7.42,7.42,0,0,0,5.32,1.92,7.28,7.28,0,0,0,5.22-1.92,6.82,6.82,0,0,0,2-5.22,6.71,6.71,0,0,0-2-5.11A7.28,7.28,0,0,0,663.08,0Zm-7.14,79.77H670V21.1H655.94Zm81.5-29.34a34.76,34.76,0,0,1-3.58,16.15A25.83,25.83,0,0,1,723.81,77.3a29.56,29.56,0,0,1-15.16,3.79,29.87,29.87,0,0,1-15.22-3.79,25.72,25.72,0,0,1-10.11-10.72,34.76,34.76,0,0,1-3.57-16.15,34.66,34.66,0,0,1,3.57-16.2,25.74,25.74,0,0,1,10.11-10.66,29.77,29.77,0,0,1,15.22-3.79,29.47,29.47,0,0,1,15.16,3.79,25.86,25.86,0,0,1,10.05,10.66A34.66,34.66,0,0,1,737.44,50.43Zm-14.62,0q0-9-3.68-14.12a12.16,12.16,0,0,0-10.49-5.11,12.32,12.32,0,0,0-10.55,5.11q-3.74,5.11-3.74,14.12t3.74,14.18a12.37,12.37,0,0,0,10.55,5,12.21,12.21,0,0,0,10.49-5Q722.82,59.56,722.82,50.43Z"/><path class="cls-2" d="M736.35.2h14V2.76h-5.62V18.5H742V2.76h-5.62Zm31.07,0-5.44,15L756.54.2h-3.81V18.5h2.78V5.1l4.92,13.38h3.1L768.45,5.1V18.5h2.78V.2Z"/><path class="cls-2" d="M133.49,118.46a7.08,7.08,0,0,0,2.68-.77,4.68,4.68,0,0,0,1.86-1.83,5.5,5.5,0,0,0,.63-2.7,5.79,5.79,0,0,0-2.47-5.19c-1.65-1.09-4-1.64-7.15-1.64h-9.76v25.12h11q4.57,0,7-1.72a5.93,5.93,0,0,0,2.46-5.22,5.63,5.63,0,0,0-1.69-4.26A7.34,7.34,0,0,0,133.49,118.46Zm-8.83-7.74h4.24a6,6,0,0,1,3.2.72,2.76,2.76,0,0,1,0,4.51,5.7,5.7,0,0,1-3.17.78h-4.24Zm8.47,15.54a5.54,5.54,0,0,1-3.13.8h-5.34v-6.44H130a5.39,5.39,0,0,1,3.13.83,2.79,2.79,0,0,1,1.18,2.43A2.67,2.67,0,0,1,133.13,126.26Zm37.56-5.34a5,5,0,0,0-2.6-1,6.5,6.5,0,0,0,1.77-.82,6.12,6.12,0,0,0,2-2.19,6.43,6.43,0,0,0,.73-3.08,6.85,6.85,0,0,0-4.23-6.58,11.6,11.6,0,0,0-4.79-.92h-11v25.12h5.38v-9.2h5.34a4.15,4.15,0,0,1,2.71.69,3,3,0,0,1,.9,2.14l.46,6.37h5.48l-.63-7.22A4.55,4.55,0,0,0,170.69,120.92ZM166,116.85a4.55,4.55,0,0,1-3,.91h-5v-6.9h4.85a5.08,5.08,0,0,1,3.18.86,3.09,3.09,0,0,1,1.1,2.57A3.14,3.14,0,0,1,166,116.85Zm27.21-10.52-9.05,25.12h5.55l1.84-5.35h9.66l1.84,5.35h5.59l-9.06-25.12ZM193,121.68l3.33-9.69,3.32,9.69Zm43.21-15.35h5.37v25.12h-6l-9.9-16.74v16.74h-5.38V106.33h5.94l10,17.33Zm27.87,0h-8.67v25.12h8.88q6,0,9.25-3.26t3.24-9.27q0-6-3.29-9.32T264.12,106.33ZM269.51,125c-1.17,1.31-3,2-5.39,2h-3.29V110.86h3.29c2.43,0,4.22.65,5.39,2s1.75,3.33,1.75,6.07S270.68,123.65,269.51,125Zm20-18.62h5.38v25.12h-5.38Zm35.12,0H330v25.12h-6l-9.9-16.74v16.74h-5.38V106.33h5.94l10,17.33Zm30,12.06h11v13.06H362.3l-.19-3.59a6.3,6.3,0,0,1-1,1.43,8.6,8.6,0,0,1-3,2,10.1,10.1,0,0,1-3.87.72,11.25,11.25,0,0,1-6.23-1.66,10.9,10.9,0,0,1-4-4.62,15.78,15.78,0,0,1-1.39-6.81,15.55,15.55,0,0,1,1.41-6.75,11.11,11.11,0,0,1,4.09-4.69,11.66,11.66,0,0,1,6.42-1.72,12.63,12.63,0,0,1,5.5,1.08,9,9,0,0,1,3.59,3.06,12.59,12.59,0,0,1,1.87,4.67l-5.55.25a6,6,0,0,0-1.65-3.31,5.15,5.15,0,0,0-3.73-1.22,5.64,5.64,0,0,0-3.59,1.13,6.74,6.74,0,0,0-2.12,3.08,14.57,14.57,0,0,0,0,8.86,6.44,6.44,0,0,0,2.12,3,5.93,5.93,0,0,0,3.7,1.09,5.84,5.84,0,0,0,2.88-.67,5,5,0,0,0,1.91-1.84,6.26,6.26,0,0,0,.83-2.65h-5.73Zm61.48,5.87a12.88,12.88,0,0,0,.89-3.89l-5.38-.53a6.81,6.81,0,0,1-.92,3.75l-4-5a15.43,15.43,0,0,0,4.09-3.1,5.57,5.57,0,0,0,1.32-3.76,5.71,5.71,0,0,0-.85-3.1,5.64,5.64,0,0,0-2.54-2.14,10.11,10.11,0,0,0-4.21-.78,8.25,8.25,0,0,0-5.65,1.74,5.93,5.93,0,0,0-2,4.67,6.08,6.08,0,0,0,.32,2,7.52,7.52,0,0,0,.9,1.76,15.17,15.17,0,0,0,1.4,1.76,16.66,16.66,0,0,0-3,2.26,7,7,0,0,0-1.68,2.41,7.5,7.5,0,0,0-.52,2.9,5.92,5.92,0,0,0,2.3,5c1.54,1.17,3.76,1.75,6.69,1.75a17,17,0,0,0,4.12-.46,9.49,9.49,0,0,0,3-1.2l.92,1.1h6.26l-3.43-4A10.4,10.4,0,0,0,416.1,124.26ZM403,110.86a2.24,2.24,0,0,1,1.64-.57,2.1,2.1,0,0,1,1.51.52,1.86,1.86,0,0,1,.54,1.43,2.47,2.47,0,0,1-.28,1.2,3.85,3.85,0,0,1-.87,1,8.58,8.58,0,0,1-1.53,1,14.59,14.59,0,0,1-.94-1.17,3.31,3.31,0,0,1-.51-1,3.22,3.22,0,0,1-.15-1A2,2,0,0,1,403,110.86Zm2.69,16.31a6.93,6.93,0,0,1-2,.24,4.68,4.68,0,0,1-2.88-.76,2.38,2.38,0,0,1-1-2,3.5,3.5,0,0,1,.6-2,6.72,6.72,0,0,1,1.91-1.74l4.6,5.66A3.93,3.93,0,0,1,405.69,127.17Zm49.47-20.84h-8.67v25.12h8.88q6,0,9.25-3.26t3.24-9.27q0-6-3.29-9.32T455.16,106.33ZM460.55,125c-1.17,1.31-3,2-5.39,2h-3.29V110.86h3.29c2.43,0,4.22.65,5.39,2s1.75,3.33,1.75,6.07S461.72,123.65,460.55,125Zm25.3,2h12.38v4.53H480.47V106.33H498v4.53h-12.1v5.76h11.67v4.46H485.85ZM529.43,121a6.68,6.68,0,0,1,.85,3.4,7,7,0,0,1-1.19,4.05,7.51,7.51,0,0,1-3.36,2.63,14.85,14.85,0,0,1-10.73-.17,8.71,8.71,0,0,1-3.65-3.08,9.49,9.49,0,0,1-1.48-4.67l5.41-.25a6.37,6.37,0,0,0,.87,2.53,4,4,0,0,0,1.77,1.57,6.22,6.22,0,0,0,2.74.54,7.24,7.24,0,0,0,2.28-.32,3,3,0,0,0,1.43-1,2.58,2.58,0,0,0,.5-1.61,2.67,2.67,0,0,0-.43-1.53,3.69,3.69,0,0,0-1.63-1.21,20.31,20.31,0,0,0-3.53-1.08,26.17,26.17,0,0,1-5.18-1.66,5.81,5.81,0,0,1-3.74-5.84,7,7,0,0,1,1.12-4,7.38,7.38,0,0,1,3.23-2.65,12.25,12.25,0,0,1,5.06-1,11.54,11.54,0,0,1,5.27,1.1,8.38,8.38,0,0,1,3.38,3,9.78,9.78,0,0,1,1.47,4.38l-5.38.29a5,5,0,0,0-.7-2.28,4.23,4.23,0,0,0-1.63-1.51,5.41,5.41,0,0,0-2.48-.53,4.53,4.53,0,0,0-2.88.82,2.55,2.55,0,0,0-1,2.12,2.45,2.45,0,0,0,.47,1.54,3.75,3.75,0,0,0,1.6,1.07,17.7,17.7,0,0,0,3.16.89,20.8,20.8,0,0,1,5.54,1.79A7,7,0,0,1,529.43,121Zm13.73-14.68h5.38v25.12h-5.38Zm30.07,12.06h11v13.06H580.9l-.18-3.59a6.35,6.35,0,0,1-1,1.43,8.56,8.56,0,0,1-3,2,10.12,10.12,0,0,1-3.88.72,11.22,11.22,0,0,1-6.22-1.66,10.9,10.9,0,0,1-4-4.62,15.78,15.78,0,0,1-1.4-6.81,15.55,15.55,0,0,1,1.41-6.75,11.18,11.18,0,0,1,4.09-4.69,11.66,11.66,0,0,1,6.42-1.72,12.63,12.63,0,0,1,5.5,1.08,8.86,8.86,0,0,1,3.59,3.06,12.6,12.6,0,0,1,1.88,4.67l-5.56.25a6,6,0,0,0-1.64-3.31,5.17,5.17,0,0,0-3.73-1.22,5.62,5.62,0,0,0-3.59,1.13,6.69,6.69,0,0,0-2.13,3.08,14.57,14.57,0,0,0,0,8.86,6.38,6.38,0,0,0,2.13,3,6.69,6.69,0,0,0,6.58.42,5,5,0,0,0,1.91-1.84,6.4,6.4,0,0,0,.83-2.65h-5.73Zm45.54-12.06v25.12h-6l-9.91-16.74v16.74h-5.37V106.33h5.94l10,17.33V106.33Z"/></svg>